<?xml version="1.0" standalone="no"?>
<!DOCTYPE svg PUBLIC "-//W3C//DTD SVG 20010904//EN"
 "http://www.w3.org/TR/2001/REC-SVG-20010904/DTD/svg10.dtd">
<svg version="1.0" xmlns="http://www.w3.org/2000/svg"
 width="1280.000000pt" height="640.000000pt" viewBox="0 0 1280.000000 640.000000"
 preserveAspectRatio="xMidYMid meet">
<metadata>
Created by potrace 1.15, written by Peter Selinger 2001-2017
</metadata>
<g transform="translate(0.000000,640.000000) scale(0.100000,-0.100000)"
fill="#000000" stroke="none">
<path d="M8074 5084 c-120 -143 -303 -376 -906 -1149 -670 -859 -683 -875
-713 -875 -13 0 -207 50 -432 111 -555 151 -512 140 -847 224 -505 128 -507
129 -633 201 -127 73 -414 218 -513 259 -36 15 -82 36 -102 46 -35 18 -36 20
-28 51 13 43 5 47 -15 8 -12 -23 -21 -30 -33 -25 -9 4 -95 34 -190 67 -305
104 -548 154 -712 147 -129 -6 -173 -32 -349 -203 -418 -410 -411 -401 -411
-540 0 -139 79 -328 196 -471 l44 -55 -14 -57 c-7 -32 -10 -67 -6 -78 4 -11 3
-23 -4 -27 -15 -10 -215 -9 -456 2 -315 14 -847 89 -1280 180 -107 23 -258 54
-335 70 -77 17 -161 30 -186 30 -58 0 -109 -17 -103 -35 3 -7 -6 -22 -20 -33
-25 -19 -35 -55 -18 -66 12 -7 119 -28 382 -76 332 -59 404 -76 395 -90 -4 -6
-48 -10 -98 -10 -114 0 -172 -24 -235 -95 -54 -62 -88 -163 -77 -233 23 -152
153 -254 383 -298 77 -15 102 -16 150 -6 37 7 72 8 102 2 63 -13 157 -12 183
1 12 6 37 25 54 42 29 27 33 37 33 81 -1 28 -7 62 -15 76 -20 35 -19 37 19 50
18 6 52 31 75 55 23 25 47 45 52 45 7 0 8 -20 4 -54 -8 -65 12 -144 50 -196
34 -47 131 -105 230 -137 65 -21 101 -26 195 -28 63 -1 143 -7 178 -15 82 -17
128 -9 185 31 36 25 47 39 47 58 -1 24 -12 88 -21 119 -2 8 11 19 34 27 22 7
66 30 99 50 52 32 66 37 101 32 69 -9 248 -44 253 -49 2 -3 0 -18 -7 -34 -6
-16 -11 -55 -12 -86 -2 -77 23 -113 79 -113 34 0 41 4 59 38 l22 37 24 -37
c20 -31 31 -39 61 -41 33 -3 40 1 58 30 14 24 20 50 20 96 0 71 8 76 60 37 46
-34 103 -51 268 -80 78 -14 145 -25 147 -25 5 0 -1 -60 -11 -107 -6 -30 -109
-113 -141 -113 -22 0 -24 -2 -13 -15 7 -8 19 -15 27 -15 15 0 80 51 165 127
26 24 53 43 61 43 11 0 16 -26 22 -108 20 -252 11 -278 -58 -172 -37 56 -98
54 -123 -5 -46 -112 22 -242 101 -191 50 33 49 5 -2 -39 -34 -29 -37 -36 -40
-96 -3 -51 0 -70 16 -96 18 -28 26 -33 61 -33 36 0 41 3 60 40 11 22 25 40 31
40 6 0 31 -20 56 -45 53 -54 81 -57 117 -14 22 25 26 41 26 90 0 59 -12 96
-34 111 -6 4 -32 8 -58 8 -27 0 -48 2 -48 4 0 2 16 20 36 40 36 36 36 37 32
104 -3 54 -9 74 -31 103 -15 20 -27 42 -27 50 0 8 43 58 94 111 76 79 99 98
122 98 31 0 195 -27 201 -33 2 -2 -10 -32 -25 -65 -44 -92 -32 -122 62 -157
33 -13 55 -30 72 -55 22 -33 36 -41 135 -73 60 -20 127 -40 148 -43 l38 -6 31
83 c17 46 31 80 32 74 1 -5 3 -50 5 -100 4 -106 -10 -150 -48 -157 -22 -4 -27
1 -40 33 -25 64 -92 73 -131 17 -21 -29 -21 -129 -1 -168 18 -34 42 -43 90
-34 29 5 35 3 35 -10 0 -30 29 -74 52 -79 38 -10 66 3 89 39 26 43 50 43 86 0
37 -45 71 -53 106 -26 50 40 57 131 16 200 -18 29 -23 31 -66 29 -56 -4 -63 8
-35 55 15 24 17 37 9 45 -40 40 113 11 161 -31 31 -27 39 -29 100 -26 l67 3
17 55 c9 30 22 75 30 100 10 34 18 46 36 48 13 2 29 -1 36 -7 7 -6 38 -17 71
-25 67 -18 72 -21 57 -39 -9 -10 -8 -19 4 -35 16 -23 14 -41 -13 -104 -21 -49
-47 -50 -63 -3 -18 54 -71 72 -117 40 -29 -21 -48 -101 -34 -152 17 -64 32
-77 87 -75 45 0 50 -2 64 -31 8 -17 26 -39 41 -49 34 -26 73 -11 96 37 9 19
22 35 28 35 6 0 29 -18 50 -40 42 -43 91 -54 115 -25 8 10 31 15 66 15 52 0
54 1 76 40 13 22 27 40 31 40 5 0 26 -18 48 -40 48 -49 87 -53 118 -15 25 33
34 75 26 125 -11 64 -33 84 -94 82 l-52 -1 30 35 c21 24 32 49 37 83 l6 50 52
5 c28 3 121 13 206 21 187 19 505 64 1055 150 226 35 437 67 470 70 119 14
176 57 240 185 30 60 39 70 67 74 18 3 177 20 352 37 287 28 320 30 328 16 45
-82 152 -138 317 -167 138 -24 183 -25 244 -4 44 15 53 15 158 -6 129 -26 184
-23 237 13 20 14 54 28 75 31 42 8 45 15 18 40 -22 20 -45 66 -55 109 -5 22
-3 27 13 27 11 0 37 14 57 32 36 32 39 32 168 40 186 10 697 55 703 62 11 11
-31 19 -101 20 -39 1 -192 -3 -340 -8 -228 -8 -268 -7 -264 5 2 8 46 29 98 47
99 34 151 42 1050 156 195 25 553 71 795 102 508 65 562 70 647 56 35 -6 101
-13 148 -16 113 -7 58 7 -115 29 -71 9 -197 30 -280 46 -201 39 -264 43 -440
30 -999 -75 -2289 -141 -3320 -171 -192 -5 -443 -12 -557 -16 -203 -5 -208 -5
-208 14 0 26 36 148 250 857 98 325 203 680 234 790 31 110 77 263 101 340 58
179 145 478 141 482 -11 11 -158 35 -246 40 l-105 6 -91 -109z m620 -2670 c13
-5 14 -9 5 -20 -8 -10 -38 -14 -108 -14 -53 0 -195 -7 -316 -14 -230 -14 -285
-12 -285 9 0 14 10 15 370 39 198 14 298 14 334 0z m-4841 -400 c21 -4 37 -12
37 -20 0 -16 -99 -135 -116 -141 -15 -5 -27 78 -19 128 7 43 17 46 98 33z
m1747 -379 c0 -25 7 -61 15 -80 24 -60 92 -67 129 -13 14 19 18 21 26 8 17
-27 11 -39 -32 -64 -29 -16 -63 -25 -105 -28 l-63 -4 0 113 c0 94 3 113 15
113 11 0 15 -12 15 -45z"/>
</g>
</svg>
